<svg width="192" height="20" viewBox="0 0 192 20" fill="none" xmlns="http://www.w3.org/2000/svg">
<path d="M191.5 10C191.5 15.2467 187.247 19.5 182 19.5L10 19.5C4.75328 19.5 0.5 15.2467 0.5 10C0.5 4.75329 4.7533 0.5 10 0.5L182 0.5C187.247 0.5 191.5 4.75329 191.5 10Z" fill="white" stroke="#3DBDF6"/>
<path d="M122.5 10C122.5 14.6944 118.694 18.5 114 18.5L8.99999 18.5C4.30558 18.5 0.499992 14.6944 0.499992 10C0.499992 5.30558 4.30558 1.5 8.99999 1.5L114 1.5C118.694 1.5 122.5 5.30558 122.5 10Z" fill="#3DBDF6" stroke="#3DBDF6"/>
<path d="M18.692 14.144C17.492 14.144 16.492 13.76 15.692 12.992C14.892 12.216 14.492 11.22 14.492 10.004C14.492 8.788 14.892 7.796 15.692 7.028C16.492 6.252 17.492 5.864 18.692 5.864C20.084 5.864 21.156 6.464 21.908 7.664L20.708 8.276C20.508 7.932 20.224 7.652 19.856 7.436C19.496 7.22 19.108 7.112 18.692 7.112C17.9 7.112 17.24 7.384 16.712 7.928C16.192 8.472 15.932 9.164 15.932 10.004C15.932 10.844 16.192 11.536 16.712 12.08C17.24 12.624 17.9 12.896 18.692 12.896C19.116 12.896 19.508 12.788 19.868 12.572C20.228 12.356 20.508 12.076 20.708 11.732L21.908 12.344C21.14 13.544 20.068 14.144 18.692 14.144ZM27.7957 14H26.5357V13.376C26.0877 13.888 25.4637 14.144 24.6637 14.144C24.1357 14.144 23.6677 13.976 23.2597 13.64C22.8517 13.296 22.6477 12.824 22.6477 12.224C22.6477 11.608 22.8477 11.14 23.2477 10.82C23.6557 10.5 24.1277 10.34 24.6637 10.34C25.4877 10.34 26.1117 10.588 26.5357 11.084V10.22C26.5357 9.884 26.4117 9.62 26.1637 9.428C25.9157 9.236 25.5877 9.14 25.1797 9.14C24.5317 9.14 23.9597 9.384 23.4637 9.872L22.9477 8.996C23.6037 8.372 24.4157 8.06 25.3837 8.06C26.0957 8.06 26.6757 8.228 27.1237 8.564C27.5717 8.9 27.7957 9.432 27.7957 10.16V14ZM25.1557 13.28C25.7877 13.28 26.2477 13.08 26.5357 12.68V11.804C26.2477 11.404 25.7877 11.204 25.1557 11.204C24.7957 11.204 24.4997 11.3 24.2677 11.492C24.0357 11.684 23.9197 11.936 23.9197 12.248C23.9197 12.56 24.0357 12.812 24.2677 13.004C24.4997 13.188 24.7957 13.28 25.1557 13.28ZM30.6893 14H29.4293V8.204H30.6893V10.484H33.3533V8.204H34.6133V14H33.3533V11.588H30.6893V14ZM41.6736 14H40.0896L38.3136 11.612L37.5096 12.44V14H36.2496V8.204H37.5096V11L40.0656 8.204H41.6256L39.2136 10.832L41.6736 14ZM44.882 14H43.622V9.308H41.966V8.204H46.55V9.308H44.882V14ZM50.0056 11.636H47.1256V10.556H50.0056V11.636ZM58.1873 14H56.7833V7.232H52.6193V14H51.2153V5.996H58.1873V14ZM62.5272 14.144C61.6472 14.144 60.9192 13.864 60.3432 13.304C59.7752 12.736 59.4912 12 59.4912 11.096C59.4912 10.248 59.7672 9.532 60.3192 8.948C60.8792 8.356 61.5832 8.06 62.4312 8.06C63.2872 8.06 63.9752 8.356 64.4952 8.948C65.0232 9.54 65.2872 10.296 65.2872 11.216V11.516H60.8112C60.8592 11.972 61.0472 12.352 61.3752 12.656C61.7032 12.96 62.1312 13.112 62.6592 13.112C62.9552 13.112 63.2512 13.056 63.5472 12.944C63.8512 12.832 64.1032 12.676 64.3032 12.476L64.8792 13.304C64.2952 13.864 63.5112 14.144 62.5272 14.144ZM64.0632 10.628C64.0472 10.228 63.8992 9.872 63.6192 9.56C63.3472 9.248 62.9512 9.092 62.4312 9.092C61.9352 9.092 61.5472 9.248 61.2672 9.56C60.9872 9.864 60.8312 10.22 60.7992 10.628H64.0632ZM68.8468 14H67.5868V9.308H65.9308V8.204H70.5148V9.308H68.8468V14ZM74.2225 14.144C73.3425 14.144 72.6145 13.864 72.0385 13.304C71.4705 12.736 71.1865 12 71.1865 11.096C71.1865 10.248 71.4625 9.532 72.0145 8.948C72.5745 8.356 73.2785 8.06 74.1265 8.06C74.9825 8.06 75.6705 8.356 76.1905 8.948C76.7185 9.54 76.9825 10.296 76.9825 11.216V11.516H72.5065C72.5545 11.972 72.7425 12.352 73.0705 12.656C73.3985 12.96 73.8265 13.112 74.3545 13.112C74.6505 13.112 74.9465 13.056 75.2425 12.944C75.5465 12.832 75.7985 12.676 75.9985 12.476L76.5745 13.304C75.9905 13.864 75.2065 14.144 74.2225 14.144ZM75.7585 10.628C75.7425 10.228 75.5945 9.872 75.3145 9.56C75.0425 9.248 74.6465 9.092 74.1265 9.092C73.6305 9.092 73.2425 9.248 72.9625 9.56C72.6825 9.864 72.5265 10.22 72.4945 10.628H75.7585ZM81.3462 14.144C80.5782 14.144 79.9582 13.828 79.4862 13.196V16.208H78.2262V8.204H79.4862V8.996C79.9502 8.372 80.5702 8.06 81.3462 8.06C82.1062 8.06 82.7222 8.332 83.1942 8.876C83.6742 9.42 83.9142 10.16 83.9142 11.096C83.9142 12.032 83.6742 12.776 83.1942 13.328C82.7222 13.872 82.1062 14.144 81.3462 14.144ZM80.9742 13.028C81.4702 13.028 81.8662 12.848 82.1622 12.488C82.4582 12.128 82.6062 11.664 82.6062 11.096C82.6062 10.528 82.4582 10.068 82.1622 9.716C81.8662 9.356 81.4702 9.176 80.9742 9.176C80.6862 9.176 80.4022 9.252 80.1222 9.404C79.8422 9.556 79.6302 9.74 79.4862 9.956V12.248C79.6302 12.464 79.8422 12.648 80.1222 12.8C80.4022 12.952 80.6862 13.028 80.9742 13.028ZM87.7797 13.028C88.2997 13.028 88.7077 12.84 89.0037 12.464C89.3077 12.088 89.4597 11.624 89.4597 11.072C89.4597 10.544 89.3077 10.096 89.0037 9.728C88.7077 9.36 88.2997 9.176 87.7797 9.176C87.2677 9.176 86.8597 9.36 86.5557 9.728C86.2597 10.096 86.1117 10.544 86.1117 11.072C86.1117 11.624 86.2597 12.088 86.5557 12.464C86.8597 12.84 87.2677 13.028 87.7797 13.028ZM89.9517 13.256C89.4157 13.848 88.6917 14.144 87.7797 14.144C86.8677 14.144 86.1437 13.836 85.6077 13.22C85.0797 12.596 84.8157 11.8 84.8157 10.832C84.8157 9.448 85.0517 8.416 85.5237 7.736C86.0037 7.056 86.7397 6.656 87.7317 6.536C88.3317 6.448 88.7437 6.364 88.9677 6.284C89.1997 6.204 89.3157 6.108 89.3157 5.996H90.5517C90.5517 6.836 89.7277 7.348 88.0797 7.532C87.4317 7.604 86.9317 7.784 86.5797 8.072C86.2357 8.352 86.0197 8.688 85.9317 9.08C86.1637 8.76 86.4637 8.512 86.8317 8.336C87.2077 8.152 87.6037 8.06 88.0197 8.06C88.8197 8.06 89.4757 8.356 89.9877 8.948C90.4997 9.54 90.7557 10.252 90.7557 11.084C90.7557 11.94 90.4877 12.664 89.9517 13.256ZM91.8374 16.268L92.0294 15.14C92.1734 15.204 92.3334 15.236 92.5094 15.236C92.9174 15.236 93.1934 15.068 93.3374 14.732L93.6254 14.072L91.2494 8.204H92.5934L94.2854 12.548L95.9774 8.204H97.3334L94.5374 15.044C94.1934 15.9 93.5294 16.336 92.5454 16.352C92.2814 16.352 92.0454 16.324 91.8374 16.268ZM101.245 14.144C100.477 14.144 99.8566 13.828 99.3846 13.196V16.208H98.1246V8.204H99.3846V8.996C99.8486 8.372 100.469 8.06 101.245 8.06C102.005 8.06 102.621 8.332 103.093 8.876C103.573 9.42 103.813 10.16 103.813 11.096C103.813 12.032 103.573 12.776 103.093 13.328C102.621 13.872 102.005 14.144 101.245 14.144ZM100.873 13.028C101.369 13.028 101.765 12.848 102.061 12.488C102.357 12.128 102.505 11.664 102.505 11.096C102.505 10.528 102.357 10.068 102.061 9.716C101.765 9.356 101.369 9.176 100.873 9.176C100.585 9.176 100.301 9.252 100.021 9.404C99.7406 9.556 99.5286 9.74 99.3846 9.956V12.248C99.5286 12.464 99.7406 12.648 100.021 12.8C100.301 12.952 100.585 13.028 100.873 13.028ZM109.454 8.204V9.308H106.322V14H105.062V8.204H109.454Z" fill="white"/>
<path d="M145.124 14H144.128V7.412L141.404 14H140.996L138.284 7.412V14H137.288V5.996H138.716L141.2 12.02L143.696 5.996H145.124V14ZM151.563 13.268C151.043 13.852 150.351 14.144 149.487 14.144C148.623 14.144 147.927 13.852 147.399 13.268C146.879 12.684 146.619 11.96 146.619 11.096C146.619 10.232 146.879 9.512 147.399 8.936C147.927 8.352 148.623 8.06 149.487 8.06C150.351 8.06 151.043 8.352 151.563 8.936C152.091 9.512 152.355 10.232 152.355 11.096C152.355 11.96 152.091 12.684 151.563 13.268ZM148.071 12.692C148.423 13.124 148.895 13.34 149.487 13.34C150.079 13.34 150.547 13.124 150.891 12.692C151.235 12.252 151.407 11.72 151.407 11.096C151.407 10.472 151.235 9.944 150.891 9.512C150.547 9.08 150.079 8.864 149.487 8.864C148.895 8.864 148.423 9.084 148.071 9.524C147.727 9.956 147.555 10.48 147.555 11.096C147.555 11.72 147.727 12.252 148.071 12.692ZM156.378 14.144C155.522 14.144 154.826 13.856 154.29 13.28C153.754 12.696 153.486 11.968 153.486 11.096C153.486 10.224 153.754 9.5 154.29 8.924C154.826 8.348 155.522 8.06 156.378 8.06C157.274 8.06 157.982 8.396 158.502 9.068L157.902 9.62C157.534 9.116 157.042 8.864 156.426 8.864C155.818 8.864 155.33 9.072 154.962 9.488C154.602 9.904 154.422 10.44 154.422 11.096C154.422 11.752 154.602 12.292 154.962 12.716C155.33 13.132 155.818 13.34 156.426 13.34C157.034 13.34 157.526 13.088 157.902 12.584L158.502 13.136C157.982 13.808 157.274 14.144 156.378 14.144ZM164.863 14H163.711L161.623 11.396L160.663 12.344V14H159.763V8.204H160.663V11.288L163.711 8.204H164.851L162.283 10.832L164.863 14ZM169.179 14H165.927V8.204H169.119C169.623 8.204 170.019 8.34 170.307 8.612C170.603 8.884 170.751 9.244 170.751 9.692C170.751 10.02 170.659 10.304 170.475 10.544C170.299 10.776 170.079 10.932 169.815 11.012C170.111 11.084 170.359 11.256 170.559 11.528C170.767 11.8 170.871 12.1 170.871 12.428C170.871 12.9 170.719 13.28 170.415 13.568C170.119 13.856 169.707 14 169.179 14ZM168.999 13.208C169.287 13.208 169.515 13.128 169.683 12.968C169.851 12.808 169.935 12.592 169.935 12.32C169.935 12.072 169.851 11.86 169.683 11.684C169.515 11.508 169.287 11.42 168.999 11.42H166.827V13.208H168.999ZM168.963 10.628C169.235 10.628 169.447 10.556 169.599 10.412C169.751 10.26 169.827 10.064 169.827 9.824C169.827 9.568 169.751 9.368 169.599 9.224C169.447 9.072 169.235 8.996 168.963 8.996H166.827V10.628H168.963ZM177.096 14H176.196V13.34C175.708 13.876 175.068 14.144 174.276 14.144C173.74 14.144 173.268 13.972 172.86 13.628C172.452 13.284 172.248 12.816 172.248 12.224C172.248 11.616 172.448 11.148 172.848 10.82C173.256 10.484 173.732 10.316 174.276 10.316C175.1 10.316 175.74 10.58 176.196 11.108V10.064C176.196 9.68 176.06 9.38 175.788 9.164C175.516 8.948 175.164 8.84 174.732 8.84C174.052 8.84 173.46 9.108 172.956 9.644L172.536 9.02C173.152 8.38 173.924 8.06 174.852 8.06C175.516 8.06 176.056 8.22 176.472 8.54C176.888 8.86 177.096 9.352 177.096 10.016V14ZM174.6 13.496C175.32 13.496 175.852 13.256 176.196 12.776V11.684C175.852 11.204 175.32 10.964 174.6 10.964C174.184 10.964 173.84 11.084 173.568 11.324C173.304 11.556 173.172 11.86 173.172 12.236C173.172 12.604 173.304 12.908 173.568 13.148C173.84 13.38 174.184 13.496 174.6 13.496Z" fill="#3DBDF6"/>
</svg>
